<?xml version="1.0" encoding="utf-8"?>
<!-- Generator: Adobe Illustrator 19.1.1, SVG Export Plug-In . SVG Version: 6.00 Build 0)  -->
<svg version="1.1" id="Layer_1" xmlns="http://www.w3.org/2000/svg" xmlns:xlink="http://www.w3.org/1999/xlink" x="0px" y="0px"
	 viewBox="0 0 61.7 61.7" enable-background="new 0 0 61.7 61.7" xml:space="preserve">
<g>
	<path d="M30.9,61.7C13.8,61.7,0,47.9,0,30.9S13.8,0,30.9,0c17,0,30.9,13.8,30.9,30.9S47.9,61.7,30.9,61.7z M30.9,9
		C18.8,9,9,18.8,9,30.9c0,12.1,9.8,21.9,21.9,21.9s21.9-9.8,21.9-21.9C52.7,18.8,42.9,9,30.9,9z M30.1,44.5c-1,1-2.6,1-3.6,0
		L14.7,32.7c-1-1-1-2.6,0-3.6l4.1-4.1c1-1,2.6-1,3.6,0l5.9,5.9l11-11c1-1,2.6-1,3.6,0l4.1,4.1c1,1,1,2.6,0,3.6L30.1,44.5z"/>
</g>
</svg>
