<?xml version="1.0" encoding="utf-8"?>
<!-- Generator: Adobe Illustrator 19.1.1, SVG Export Plug-In . SVG Version: 6.00 Build 0)  -->
<svg version="1.1" id="Layer_1" xmlns="http://www.w3.org/2000/svg" xmlns:xlink="http://www.w3.org/1999/xlink" x="0px" y="0px"
	 viewBox="0 0 61.7 61.7" enable-background="new 0 0 61.7 61.7" xml:space="preserve">
<g>
	<path d="M30.9,61.7C13.8,61.7,0,47.9,0,30.9S13.8,0,30.9,0c17,0,30.9,13.8,30.9,30.9S47.9,61.7,30.9,61.7z M45.4,38.1l-7.3-7.3
		l7.3-7.3c0.5-0.5,0.8-1.1,0.8-1.8c0-0.7-0.3-1.4-0.8-1.8l-3.6-3.6c-0.5-0.5-1.2-0.8-1.8-0.8c-0.7,0-1.3,0.3-1.8,0.8l-7.3,7.3
		l-7.3-7.3c-0.5-0.5-1.1-0.8-1.8-0.8c-0.7,0-1.4,0.3-1.8,0.8l-3.6,3.6c-0.5,0.5-0.8,1.2-0.8,1.8c0,0.7,0.3,1.3,0.8,1.8l7.3,7.3
		l-7.3,7.3c-0.5,0.5-0.8,1.1-0.8,1.8c0,0.7,0.3,1.4,0.8,1.8l3.6,3.6c0.5,0.5,1.2,0.8,1.8,0.8c0.7,0,1.3-0.3,1.8-0.8l7.3-7.3l7.3,7.3
		c0.5,0.5,1.1,0.8,1.8,0.8c0.7,0,1.4-0.3,1.8-0.8l3.6-3.6c0.5-0.5,0.8-1.2,0.8-1.8C46.2,39.3,45.9,38.6,45.4,38.1z"/>
</g>
</svg>
