<?xml version="1.0" encoding="utf-8"?>
<!-- Generator: Adobe Illustrator 19.1.1, SVG Export Plug-In . SVG Version: 6.00 Build 0)  -->
<svg version="1.1" id="Layer_1" xmlns="http://www.w3.org/2000/svg" xmlns:xlink="http://www.w3.org/1999/xlink" x="0px" y="0px"
	 viewBox="0 0 55.7 60" enable-background="new 0 0 55.7 60" xml:space="preserve">
<g>
	<path d="M55.7,55.7c0,2.3-1.9,4.3-4.3,4.3H4.3C1.9,60,0,58.1,0,55.7V4.3C0,1.9,1.9,0,4.3,0h47.1c2.3,0,4.3,1.9,4.3,4.3V55.7z
		 M51.4,6.4c0-1.2-1-2.1-2.1-2.1H6.4c-1.2,0-2.1,1-2.1,2.1V15c0,1.2,1,2.1,2.1,2.1h42.9c1.2,0,2.1-1,2.1-2.1V6.4z M8.6,21.4
		c-2.4,0-4.3,1.9-4.3,4.3S6.2,30,8.6,30s4.3-1.9,4.3-4.3S10.9,21.4,8.6,21.4z M8.6,34.3c-2.4,0-4.3,1.9-4.3,4.3s1.9,4.3,4.3,4.3
		s4.3-1.9,4.3-4.3S10.9,34.3,8.6,34.3z M8.6,47.1c-2.4,0-4.3,1.9-4.3,4.3s1.9,4.3,4.3,4.3s4.3-1.9,4.3-4.3S10.9,47.1,8.6,47.1z
		 M21.4,21.4c-2.4,0-4.3,1.9-4.3,4.3S19,30,21.4,30s4.3-1.9,4.3-4.3S23.8,21.4,21.4,21.4z M21.4,34.3c-2.4,0-4.3,1.9-4.3,4.3
		s1.9,4.3,4.3,4.3s4.3-1.9,4.3-4.3S23.8,34.3,21.4,34.3z M21.4,47.1c-2.4,0-4.3,1.9-4.3,4.3s1.9,4.3,4.3,4.3s4.3-1.9,4.3-4.3
		S23.8,47.1,21.4,47.1z M34.3,21.4c-2.4,0-4.3,1.9-4.3,4.3s1.9,4.3,4.3,4.3s4.3-1.9,4.3-4.3S36.7,21.4,34.3,21.4z M34.3,34.3
		c-2.4,0-4.3,1.9-4.3,4.3s1.9,4.3,4.3,4.3s4.3-1.9,4.3-4.3S36.7,34.3,34.3,34.3z M34.3,47.1c-2.4,0-4.3,1.9-4.3,4.3s1.9,4.3,4.3,4.3
		s4.3-1.9,4.3-4.3S36.7,47.1,34.3,47.1z M47.1,21.4c-2.4,0-4.3,1.9-4.3,4.3s1.9,4.3,4.3,4.3s4.3-1.9,4.3-4.3S49.5,21.4,47.1,21.4z
		 M51.4,38.6c0-2.3-1.9-4.3-4.3-4.3c-2.3,0-4.3,1.9-4.3,4.3v12.9c0,2.3,1.9,4.3,4.3,4.3c2.3,0,4.3-1.9,4.3-4.3V38.6z"/>
</g>
</svg>
