<?xml version="1.0" encoding="utf-8"?>
<!-- Generator: Adobe Illustrator 19.1.1, SVG Export Plug-In . SVG Version: 6.00 Build 0)  -->
<svg version="1.1" id="Layer_1" xmlns="http://www.w3.org/2000/svg" xmlns:xlink="http://www.w3.org/1999/xlink" x="0px" y="0px"
	 viewBox="0 0 30.9 42.9" enable-background="new 0 0 30.9 42.9" xml:space="preserve">
<g>
	<path d="M23.4,24c-2,1.1-3.2,3.4-3.2,4.4c0,0.7-0.6,1.6-1.3,1.6h-8c-0.7,0-1.2-1.1-1.2-1.9v-1.5c0-4.1,4-7.5,7-8.9
		c2.6-1.2,3.6-2.3,3.6-4.4c0-1.9-2.4-3.5-5.2-3.5c-1.5,0-2.9,0.5-3.6,1c-0.8,0.6-1.6,1.4-3.6,3.8c-0.3,0.3-0.7,0.5-1,0.5
		c-0.3,0-0.6-0.1-0.8-0.3l-5.5-4.2C0,10.2-0.2,9.5,0.2,8.9C3.8,2.9,8.9,0,15.7,0c7.2,0,15.2,5.7,15.2,13.4
		C30.9,19.8,26.6,22.2,23.4,24z M20.4,41.5c0,0.7-0.6,1.3-1.3,1.3h-8c-0.7,0-1.3-0.6-1.3-1.3v-8c0-0.7,0.6-1.3,1.3-1.3h8
		c0.7,0,1.3,0.6,1.3,1.3V41.5z"/>
</g>
</svg>
